<?xml version="1.0" encoding="utf-8"?>
<svg height="24" viewBox="0 0 422 24" width="422" xmlns="http://www.w3.org/2000/svg">
  <path d="M 6.4 2.369 L 17.723 2.369 L 17.723 6.144 L 6.4 6.144 L 6.4 2.369 Z M 2.626 6.144 L 6.4 6.144 L 6.4 17.465 L 2.626 17.465 L 2.626 6.144 Z M 17.723 6.144 L 21.496 6.144 L 21.496 9.918 L 17.723 9.918 L 17.723 6.144 Z M 17.723 13.692 L 21.496 13.692 L 21.496 17.465 L 17.723 17.465 L 17.723 13.692 Z M 6.4 17.465 L 17.723 17.465 L 17.723 21.189 L 6.4 21.189 L 6.4 17.465 Z M 24.676 2.369 L 39.772 2.369 L 39.772 6.144 L 28.451 6.144 L 28.451 9.918 L 39.772 9.918 L 39.772 13.692 L 28.451 13.692 L 28.451 21.189 L 24.676 21.189 L 24.676 2.369 Z M 39.772 6.144 L 43.547 6.144 L 43.547 9.918 L 39.772 9.918 L 39.772 6.144 Z M 39.772 13.692 L 43.547 13.692 L 43.547 21.189 L 39.772 21.189 L 39.772 13.692 Z M 46.735 2.369 L 50.508 2.369 L 50.508 6.144 L 46.735 6.144 L 46.735 2.369 Z M 61.831 2.369 L 65.605 2.369 L 65.605 6.144 L 61.831 6.144 L 61.831 2.369 Z M 50.508 6.144 L 54.282 6.144 L 54.282 9.918 L 50.508 9.918 L 50.508 6.144 Z M 58.057 6.144 L 61.831 6.144 L 61.831 9.918 L 58.057 9.918 L 58.057 6.144 Z M 54.282 9.918 L 58.057 9.918 L 58.057 21.189 L 54.282 21.189 L 54.282 9.918 Z M 68.784 2.369 L 83.881 2.369 L 83.881 6.144 L 72.558 6.144 L 72.558 9.918 L 83.881 9.918 L 83.881 13.692 L 72.558 13.692 L 72.558 21.189 L 68.784 21.189 L 68.784 2.369 Z M 83.881 6.144 L 87.654 6.144 L 87.654 9.918 L 83.881 9.918 L 83.881 6.144 Z M 90.843 2.369 L 109.713 2.369 L 109.713 6.144 L 102.164 6.144 L 102.164 21.189 L 98.39 21.189 L 98.39 6.144 L 90.843 6.144 L 90.843 2.369 Z M 116.666 2.369 L 127.989 2.369 L 127.989 6.144 L 116.666 6.144 L 116.666 2.369 Z M 112.893 6.144 L 116.666 6.144 L 116.666 17.465 L 112.893 17.465 L 112.893 6.144 Z M 127.989 6.144 L 131.763 6.144 L 131.763 17.465 L 127.989 17.465 L 127.989 6.144 Z M 116.666 17.465 L 127.989 17.465 L 127.989 21.189 L 116.666 21.189 L 116.666 17.465 Z M 134.95 2.369 L 150.046 2.369 L 150.046 6.144 L 138.725 6.144 L 138.725 9.918 L 150.046 9.918 L 150.046 13.692 L 138.725 13.692 L 138.725 21.189 L 134.95 21.189 L 134.95 2.369 Z M 150.046 6.144 L 153.821 6.144 L 153.821 9.918 L 150.046 9.918 L 150.046 6.144 Z M 157.001 2.369 L 160.775 2.369 L 160.775 9.918 L 172.097 9.918 L 172.097 2.369 L 175.871 2.369 L 175.871 21.189 L 172.097 21.189 L 172.097 13.692 L 160.775 13.692 L 160.775 21.189 L 157.001 21.189 L 157.001 2.369 Z M 179.058 2.369 L 182.832 2.369 L 182.832 17.465 L 179.058 17.465 L 179.058 2.369 Z M 194.155 2.369 L 197.928 2.369 L 197.928 17.465 L 194.155 17.465 L 194.155 2.369 Z M 182.832 17.465 L 194.155 17.465 L 194.155 21.189 L 182.832 21.189 L 182.832 17.465 Z M 201.108 2.369 L 204.883 2.369 L 204.883 6.144 L 208.657 6.144 L 208.657 9.918 L 204.883 9.918 L 204.883 21.189 L 201.108 21.189 L 201.108 2.369 Z M 216.204 2.369 L 219.979 2.369 L 219.979 21.189 L 216.204 21.189 L 216.204 17.465 L 212.431 17.465 L 212.431 13.692 L 216.204 13.692 L 216.204 2.369 Z M 208.657 9.918 L 212.431 9.918 L 212.431 13.692 L 208.657 13.692 L 208.657 9.918 Z M 223.167 2.369 L 226.94 2.369 L 226.94 9.918 L 234.488 9.918 L 234.488 13.692 L 226.94 13.692 L 226.94 21.189 L 223.167 21.189 L 223.167 2.369 Z M 238.263 2.369 L 242.037 2.369 L 242.037 6.144 L 238.263 6.144 L 238.263 2.369 Z M 234.488 6.144 L 238.263 6.144 L 238.263 9.918 L 234.488 9.918 L 234.488 6.144 Z M 234.488 13.692 L 238.263 13.692 L 238.263 17.465 L 234.488 17.465 L 234.488 13.692 Z M 238.263 17.465 L 242.037 17.465 L 242.037 21.189 L 238.263 21.189 L 238.263 17.465 Z M 248.998 2.369 L 264.094 2.369 L 264.094 6.144 L 248.998 6.144 L 248.998 2.369 Z M 245.224 6.144 L 248.998 6.144 L 248.998 9.918 L 245.224 9.918 L 245.224 6.144 Z M 248.998 9.918 L 260.32 9.918 L 260.32 13.692 L 248.998 13.692 L 248.998 9.918 Z M 260.32 13.692 L 264.094 13.692 L 264.094 17.465 L 260.32 17.465 L 260.32 13.692 Z M 245.224 17.465 L 260.32 17.465 L 260.32 21.189 L 245.224 21.189 L 245.224 17.465 Z" style="fill: rgb(255, 255, 255);"/>
</svg>