<svg height="24" viewBox="0 0 422 24" width="422" xmlns="http://www.w3.org/2000/svg"><g fill="none" fill-rule="nonzero"><g transform="matrix(-1 0 0 1 66 0)"><g fill="#f0f0f0"><path d="m0 24v-24h66v6h-6v6h-6v12z"/><path d="m24 18v-12h-18v12z"/><path d="m48 6h-18v12h18z"/></g><path d="m30 18v-12h18v12z" fill="#328dfd"/><path d="m6 18v-12h18v12z" fill="#fd3232"/></g><path d="m90.046875 2h12.140625v4.046875h-12.140625zm-4.046875 4.046875h4.046875v12.140625h-4.046875zm16.1875 0h4.046875v4.046875h-4.046875zm0 8.09375h4.046875v4.046875h-4.046875zm-12.140625 4.046875h12.140625v3.9921875h-12.140625zm19.605469-16.1875h16.1875v4.046875h-12.140625v4.046875h12.140625v4.046875h-12.140625v8.0390625h-4.046875zm16.1875 4.046875h4.046875v4.046875h-4.046875zm0 8.09375h4.046875v8.0390625h-4.046875zm7.464844-12.140625h4.046874v4.046875h-4.046874zm16.1875 0h4.046874v4.046875h-4.046874zm-12.140626 4.046875h4.046876v4.046875h-4.046876zm8.09375 0h4.046876v4.046875h-4.046876zm-4.046874 4.046875h4.046874v12.0859375h-4.046874zm15.558593-8.09375h16.1875v4.046875h-12.140625v4.046875h12.140625v4.046875h-12.140625v8.0390625h-4.046875zm16.1875 4.046875h4.046875v4.046875h-4.046875zm7.464844-4.046875h20.234375v4.046875h-8.09375v16.1328125h-4.046875v-16.1328125h-8.09375zm27.699219 0h12.140625v4.046875h-12.140625zm-4.046875 4.046875h4.046875v12.140625h-4.046875zm16.1875 0h4.046875v12.140625h-4.046875zm-12.140625 12.140625h12.140625v3.9921875h-12.140625zm19.605468-16.1875h16.1875v4.046875h-12.140624v4.046875h12.140624v4.046875h-12.140624v8.0390625h-4.046876zm16.1875 4.046875h4.046876v4.046875h-4.046876zm7.464844-4.046875h4.046875v16.1875h-4.046875zm16.1875 0h4.046875v16.1875h-4.046875zm-12.140625 16.1875h12.140625v3.9921875h-12.140625zm19.605469-16.1875h4.046875v4.046875h4.046875v4.046875h-4.046875v12.0859375h-4.046875zm16.1875 0h4.046875v20.1796875h-4.046875v-3.9921875h-4.046875v-4.046875h4.046875zm-8.09375 8.09375h4.046875v4.046875h-4.046875zm15.558594-8.09375h4.046875v8.09375h8.09375v4.046875h-8.09375v8.0390625h-4.046875zm16.1875 0h4.046875v4.046875h-4.046875zm-4.046875 4.046875h4.046875v4.046875h-4.046875zm0 8.09375h4.046875v4.046875h-4.046875zm4.046875 4.046875h4.046875v3.9921875h-4.046875zm11.511718-16.1875h16.1875v4.046875h-16.1875zm-4.046874 4.046875h4.046874v4.046875h-4.046874zm4.046874 4.046875h12.140626v4.046875h-12.140626zm12.140626 4.046875h4.046874v4.046875h-4.046874zm-16.1875 4.046875h16.1875v3.9921875h-16.1875zm23.652343 0h4.046875v3.9921875h-4.046875zm7.464844-16.1875h20.234375v4.046875h-16.1875v4.046875h12.140625v4.046875h-12.140625v4.046875h16.1875v3.9921875h-20.234375zm23.652344 0h20.234375v4.046875h-8.09375v16.1328125h-4.046875v-16.1328125h-8.09375zm23.652343 0h4.046876v8.09375h12.140624v-8.09375h4.046876v20.1796875h-4.046876v-8.0390625h-12.140624v8.0390625h-4.046876z" fill="#fff"/></g></svg>